<svg width="22" height="22" viewBox="0 0 22 22" fill="none" xmlns="http://www.w3.org/2000/svg">
<path fill-rule="evenodd" clip-rule="evenodd" d="M2.53175 3.28525C2.5339 3.28525 2.48024 3.34106 2.41263 3.40759C2.15293 3.65978 1.61528 4.18456 1.60986 5.28239C1.60133 6.81808 2.61117 9.66945 7.47363 14.5308C12.3136 19.3686 15.1606 20.3903 16.6995 20.3903H16.7221C17.8199 20.3849 18.3436 19.8462 18.5969 19.5875C18.6741 19.5081 18.7364 19.4502 18.7804 19.4137C19.8493 18.3384 20.3966 17.5378 20.3912 17.0249C20.3837 16.5012 19.7323 15.8819 18.8319 15.0256C18.5454 14.753 18.2342 14.4568 17.9058 14.1284C17.0548 13.2795 16.633 13.4244 15.7058 13.7507C14.4234 14.2003 12.6634 14.812 9.92901 12.0765C7.19032 9.33999 7.80309 7.58216 8.25167 6.29974C8.57576 5.37254 8.72386 4.94971 7.87177 4.09763C7.53802 3.76495 7.23861 3.44944 6.96281 3.15969C6.1118 2.26468 5.49795 1.61757 4.97747 1.61006H4.96889C4.45485 1.61006 3.65642 2.15951 2.52639 3.28954C2.52961 3.28632 2.53175 3.28525 2.53175 3.28525ZM16.7006 22C14.0263 22 10.5396 19.8709 6.33609 15.6695C2.11644 11.4509 -0.0159174 7.95347 8.94501e-05 5.27381C0.0098383 3.5031 0.938117 2.59629 1.28689 2.2561C1.30514 2.23356 1.36738 2.17239 1.38884 2.15093C2.92775 0.61095 3.96549 -0.0114801 4.99786 0.000160047C6.19658 0.0164219 7.04973 0.913579 8.12933 2.05005C8.39654 2.33122 8.6863 2.63707 9.00932 2.95901C10.5761 4.52582 10.1297 5.80395 9.77126 6.82988C9.38063 7.94918 9.04258 8.91502 11.0666 10.939C13.0927 12.963 14.0585 12.6249 15.1735 12.2311C16.2005 11.8726 17.4754 11.4241 19.0444 12.9909C19.362 13.3085 19.6636 13.595 19.9415 13.8601C21.0834 14.9451 21.9848 15.8025 22 17.0045C22.0127 18.0293 21.3903 19.0735 19.8535 20.6113L19.1732 20.1499L19.7484 20.7122C19.4082 21.061 18.5024 21.9903 16.7307 22H16.7006Z" fill="#C0E864"/>
</svg>
