<svg width="22" height="22" viewBox="0 0 22 22" fill="none" xmlns="http://www.w3.org/2000/svg">
<path fill-rule="evenodd" clip-rule="evenodd" d="M16.0232 0C19.4306 0 22 3.06533 22 7.13026V14.8788C22 16.9592 21.3328 18.8388 20.1203 20.1723C19.0326 21.3671 17.6215 22 16.0395 22H5.9574C4.37851 22 2.96847 21.3682 1.87972 20.1723C0.667163 18.8388 0 16.9592 0 14.8788V7.13026C0 3.06533 2.5694 0 5.97684 0H16.0232ZM16.0232 1.69231H5.97684C3.40335 1.69231 1.53488 3.97918 1.53488 7.13026V14.8788C1.53488 16.5068 2.04242 17.961 2.96335 18.973C3.7574 19.8474 4.79395 20.3077 5.96047 20.3077H16.0232C16.0252 20.3054 16.0334 20.3077 16.0395 20.3077C17.2071 20.3077 18.2426 19.8474 19.0367 18.973C19.9586 17.961 20.4651 16.5068 20.4651 14.8788V7.13026C20.4651 3.97918 18.5967 1.69231 16.0232 1.69231ZM17.6358 6.91454C17.9029 7.2767 17.8527 7.80921 17.5243 8.1048L12.9769 12.1799C12.4019 12.6831 11.7142 12.9346 11.0276 12.9346C10.3431 12.9346 9.66056 12.6853 9.08958 12.1866L4.50028 8.10706C4.16977 7.81372 4.1186 7.28008 4.38363 6.9168C4.6507 6.55465 5.13367 6.49711 5.46316 6.78931L10.0484 10.8644C10.6245 11.3676 11.4359 11.3676 12.0161 10.8599L16.5553 6.79157C16.8847 6.49485 17.3677 6.55126 17.6358 6.91454Z" fill="#C0E864"/>
</svg>
